Coordinates
version=1
nRows=5
nColumns=63
inDegrees=yes

Units are S.I. units (second, meters, Newtons, ...)
If the header above contains a line with 'inDegrees', this indicates whether rotational values are in degrees (yes) or radians (no).

endheader
time	pelvis_tilt	pelvis_list	pelvis_rotation	pelvis_tx	pelvis_ty	pelvis_tz	hip_flexion_r	hip_adduction_r	hip_rotation_r	knee_angle_r	knee_angle_r_beta	ankle_angle_r	subtalar_angle_r	mtp_angle_r	hip_flexion_l	hip_adduction_l	hip_rotation_l	knee_angle_l	knee_angle_l_beta	ankle_angle_l	subtalar_angle_l	mtp_angle_l	L5_S1_Flex_Ext	L5_S1_Lat_Bending	L5_S1_axial_rotation	L4_L5_Flex_Ext	L4_L5_Lat_Bending	L4_L5_axial_rotation	L3_L4_Flex_Ext	L3_L4_Lat_Bending	L3_L4_axial_rotation	L2_L3_Flex_Ext	L2_L3_Lat_Bending	L2_L3_axial_rotation	L1_L2_Flex_Ext	L1_L2_Lat_Bending	L1_L2_axial_rotation	L1_T12_Flex_Ext	L1_T12_Lat_Bending	L1_T12_axial_rotation	Abs_r3	Abs_r2	Abs_r1	Abs_t1	Abs_t2	neck_flexion	neck_bending	neck_rotation	arm_flex_r	arm_add_r	arm_rot_r	elbow_flex_r	pro_sup_r	wrist_flex_r	wrist_dev_r	arm_flex_l	arm_add_l	arm_rot_l	elbow_flex_l	pro_sup_l	wrist_flex_l	wrist_dev_l
      0.00000000	     -3.31730912	    -15.16732798	    107.97965110	      0.17072869	      0.35295479	      0.63617826	     -2.28270656	     -6.63046292	    -26.48349662	      6.56276866	      0.11454192	     19.87718901	     14.67670416	      0.00000000	     -1.17453373	      7.11964930	     -0.92387983	      0.52927801	      0.00923764	     20.86244851	      4.18500346	      0.00000000	      0.55219350	     -0.47941913	     -0.90271282	      1.02547855	     -0.63762745	     -0.95913237	      0.90719870	     -1.16565968	     -0.95913237	      0.63110195	     -1.16565968	     -0.78987372	      0.51276689	     -0.97763149	     -0.73345417	      0.31552337	     -0.74262023	     -0.67703462	      3.94426296	     -5.42328510	     -5.02061790	      0.00000000	      0.00000000	     28.34890082	      5.34584013	      4.08870629	     19.88243270	      1.74070552	     89.61151399	     23.14701267	     81.74617561	     11.16379244	     13.89086194	     14.60938162	     -2.25544321	     58.29634189	     32.32261811	     59.02449541	      3.75122925	     13.99109059
      0.02439024	     -3.28869383	    -15.15829760	    108.06440322	      0.17093516	      0.35326987	      0.63588799	     -2.17999131	     -6.56611592	    -26.02418858	      6.64173933	      0.11592022	     20.40424509	     15.03616839	      0.00000000	     -1.21712927	      7.08841090	     -1.18584074	      0.52292924	      0.00912684	     20.24842928	      4.14675557	      0.00000000	      0.55120543	     -0.48140206	     -0.96337146	      1.02364361	     -0.64026474	     -1.02358218	      0.90557541	     -1.17048097	     -1.02358218	      0.62997269	     -1.17048097	     -0.84295003	      0.51184937	     -0.98167508	     -0.78273931	      0.31495878	     -0.74569179	     -0.72252860	      3.93720529	     -5.44571640	     -5.35798306	      0.00000000	      0.00000000	     28.34955728	      5.39896363	      4.09918944	     20.04953138	      1.63153237	     89.20451465	     23.42068681	     81.40621962	     11.09385152	     13.74204333	     15.10444928	     -2.34336934	     58.24003624	     32.60151754	     59.20901601	      3.75501963	     14.36698152
      0.04878049	     -3.42331598	    -15.44923697	    107.78866760	      0.17148669	      0.35277338	      0.63500321	     -1.74655456	     -6.83949315	    -25.85926264	      6.94430609	      0.12120101	     20.77649587	     15.46520649	      0.00000000	     -1.03097686	      7.28463608	     -2.63389579	      0.53106386	      0.00926881	     20.18178025	      5.61523449	      0.00000000	      0.58563096	     -0.52090183	     -0.75963477	      1.08757525	     -0.69279944	     -0.80711195	      0.96213310	     -1.26652072	     -0.80711195	      0.66931762	     -1.26652072	     -0.66468043	      0.54381691	     -1.06222302	     -0.61720325	      0.33462953	     -0.80687694	     -0.56972608	      4.18310336	     -5.89254573	     -4.22486071	      0.00000000	      0.00000000	     28.36777087	      5.10862756	      2.97300629	     14.97124349	      0.36892543	     71.48232931	     28.44059026	      3.17609469	    -17.92561406	     29.04445982	     14.90304490	     -2.08381126	     55.40923027	     33.25170228	     67.79731645	      5.42167968	     16.35954026
      0.07317073	     -3.41577069	    -15.42505978	    107.78854814	      0.17155286	      0.35276863	      0.63481827	     -1.73173673	     -6.83269446	    -25.81900955	      6.98214635	      0.12186144	     20.70169252	     15.49305168	      0.00000000	     -1.07834846	      7.26357718	     -2.67501012	      0.55320695	      0.00965528	     20.11050469	      5.59384986	      0.00000000	      0.59078639	     -0.52184604	     -0.77097064	      1.09714940	     -0.69405524	     -0.81915630	      0.97060296	     -1.26881647	     -0.81915630	      0.67520976	     -1.26881647	     -0.67459931	      0.54860424	     -1.06414845	     -0.62641364	      0.33757534	     -0.80833952	     -0.57822798	      4.21992808	     -5.90322680	     -4.28790738	      0.00000000	      0.00000000	     28.36486768	      5.11398676	      2.96821891	     15.04709977	      0.41196117	     71.45320660	     28.51773971	      3.17122441	    -17.90152496	     29.03847799	     14.91059189	     -2.10653213	     55.46171978	     33.26492013	     67.84707157	      5.43893121	     16.38421423
      0.09756098	     -3.45964435	    -15.35508673	    107.63876603	      0.17193921	      0.35277715	      0.63512701	     -1.63040807	     -6.91720666	    -25.25420875	      7.24559942	      0.12645957	     20.38141928	     14.92477399	      0.00000000	     -1.15244417	      7.30024434	     -2.46834690	      0.53576113	      0.00935080	     19.76030433	      4.78536518	      0.00000000	      0.57497806	     -0.53173578	     -0.73157019	      1.06779175	     -0.70720859	     -0.77729332	      0.94463145	     -1.29286238	     -0.77729332	      0.65714242	     -1.29286238	     -0.64012391	      0.53392463	     -1.08431560	     -0.59440078	      0.32854246	     -0.82365872	     -0.54867764	      4.10701078	     -6.01510150	     -4.06877391	      0.00000000	      0.00000000	     28.35927660	      5.14037502	      2.49261951	     14.65118212	      0.36857379	     69.15238317	     29.10744204	      2.99169721	    -18.66393580	     28.83370486	     15.11314646	     -2.22761648	     54.88056625	     33.36780433	     77.94170157	      7.87697750	     15.30429619
